<svg width="92" height="67" viewBox="0 0 92 67" fill="none" xmlns="http://www.w3.org/2000/svg">
<rect width="92" height="67" fill="white"/>
<path d="M75.0819 28.8709C75.3389 29.83 75.0503 31.0459 73.9666 32.5184C72.8903 33.9809 71.1245 35.5569 68.7524 37.1382C64.0169 40.2948 57.0576 43.3454 48.9984 45.5048C40.9391 47.6643 33.3869 48.5021 27.7076 48.1361C24.8626 47.9528 22.5453 47.4707 20.882 46.7424C19.2073 46.009 18.3493 45.1003 18.0923 44.1412C17.8353 43.1821 18.124 41.9661 19.2077 40.4937C20.284 39.0312 22.0498 37.4552 24.4219 35.8739C29.1573 32.7173 36.1167 29.6667 44.1759 27.5072C52.2352 25.3478 59.7874 24.5099 65.4667 24.876C68.3117 25.0593 70.6289 25.5413 72.2923 26.2697C73.967 27.0031 74.825 27.9118 75.0819 28.8709Z" fill="#F56565" stroke="black" stroke-width="2"/>
<path d="M73.1426 23.565C73.4573 24.7393 73.096 26.1088 72.0182 27.6245C70.9427 29.1369 69.196 30.7306 66.8861 32.3048C62.2703 35.4505 55.5006 38.4547 47.6714 40.5525C39.8423 42.6503 32.4774 43.4335 26.9072 43.0171C24.1197 42.8088 21.8101 42.302 20.1226 41.5299C18.4312 40.7561 17.4336 39.7508 17.1189 38.5765C16.8043 37.4022 17.1656 36.0327 18.2434 34.5169C19.3189 33.0045 21.0656 31.4109 23.3755 29.8367C27.9912 26.691 34.761 23.6868 42.5902 21.589C50.4193 19.4912 57.7842 18.708 63.3544 19.1244C66.1419 19.3327 68.4515 19.8395 70.139 20.6115C71.8304 21.3853 72.828 22.3907 73.1426 23.565Z" fill="#F56565" stroke="black"/>
<path d="M17.6094 44.2706L17.1189 38.5765L73.1426 23.565L75.5649 28.7415L65.1875 36.3767L48.529 43.7531L28.4823 46.2118L17.6094 44.2706Z" fill="#F56565"/>
<path d="M17.6094 38.212L18.5 44.712" stroke="black" stroke-width="2" stroke-linecap="round"/>
<path d="M72.6597 23.6944C72.9203 24.6672 72.6439 25.8817 71.6107 27.3348C70.5823 28.781 68.8876 30.3357 66.6045 31.8916C62.0464 34.998 55.3317 37.9823 47.542 40.0695C39.7523 42.1568 32.4451 42.9297 26.9445 42.5185C24.1892 42.3126 21.9443 41.8135 20.3306 41.0753C18.7092 40.3335 17.8626 39.4199 17.6019 38.4471C17.3413 37.4743 17.6176 36.2597 18.6509 34.8067C19.6793 33.3604 21.374 31.8058 23.6571 30.2498C28.2152 27.1434 34.9299 24.1592 42.7196 22.0719C50.5093 19.9847 57.8165 19.2118 63.3171 19.623C66.0723 19.8289 68.3173 20.3279 69.931 21.0662C71.5524 21.808 72.399 22.7216 72.6597 23.6944Z" fill="#F56565" stroke="black" stroke-width="2"/>
<path d="M42.0115 45.8161L43.7794 39.8662L67.469 26.7141L72.1105 29.6599L56.949 39.839L42.0115 45.8161Z" fill="#F56565"/>
<path d="M73.9343 24.1143C73.7374 23.5983 73.1595 23.3397 72.6435 23.5366C72.1275 23.7335 71.8688 24.3114 72.0657 24.8274L73.9343 24.1143ZM72.0657 24.8274L74.0657 30.0686L75.9343 29.3555L73.9343 24.1143L72.0657 24.8274Z" fill="black"/>
</svg>
