<svg width="66" height="42" viewBox="0 0 66 42" fill="none" xmlns="http://www.w3.org/2000/svg">
<path d="M62.0819 15.6588C62.3389 16.6179 62.0503 17.8339 60.9666 19.3064C59.8903 20.7688 58.1245 22.3449 55.7524 23.9262C51.0169 27.0828 44.0576 30.1333 35.9984 32.2928C27.9391 34.4523 20.3869 35.2901 14.7076 34.9241C11.8626 34.7407 9.54534 34.2587 7.882 33.5303C6.20729 32.797 5.34932 31.8883 5.09232 30.9292C4.83533 29.9701 5.12401 28.7541 6.20767 27.2817C7.28397 25.8192 9.04977 24.2431 11.4219 22.6618C16.1573 19.5052 23.1167 16.4547 31.1759 14.2952C39.2352 12.1357 46.7874 11.2979 52.4667 11.6639C55.3117 11.8473 57.6289 12.3293 59.2923 13.0577C60.967 13.791 61.825 14.6997 62.0819 15.6588Z" fill="#F56565" stroke="black" stroke-width="2"/>
<path d="M60.1426 10.3529C60.4573 11.5273 60.096 12.8967 59.0182 14.4125C57.9427 15.9249 56.196 17.5186 53.8861 19.0928C49.2703 22.2385 42.5006 25.2426 34.6714 27.3405C26.8423 29.4383 19.4774 30.2215 13.9072 29.8051C11.1197 29.5967 8.81011 29.0899 7.12255 28.3179C5.4312 27.5441 4.4336 26.5388 4.11894 25.3645C3.80429 24.1901 4.16556 22.8207 5.24343 21.3049C6.31887 19.7925 8.0656 18.1988 10.3755 16.6246C14.9912 13.4789 21.761 10.4748 29.5902 8.37695C37.4193 6.27913 44.7842 5.49595 50.3544 5.91232C53.1419 6.12068 55.4515 6.62746 57.139 7.39951C58.8304 8.17329 59.828 9.17864 60.1426 10.3529Z" fill="#F56565" stroke="black"/>
<path d="M4.6094 31.0586L4.11894 25.3645L60.1426 10.353L62.5649 15.5294L52.1875 23.1647L35.529 30.5411L15.4823 32.9998L4.6094 31.0586Z" fill="#F56565"/>
<path d="M4.60939 25L5.5 31.5" stroke="black" stroke-width="2" stroke-linecap="round"/>
<path d="M59.6597 10.4824C59.9203 11.4551 59.6439 12.6697 58.6107 14.1227C57.5823 15.569 55.8876 17.1236 53.6045 18.6796C49.0464 21.786 42.3317 24.7702 34.542 26.8575C26.7523 28.9447 19.4451 29.7176 13.9445 29.3065C11.1892 29.1005 8.94433 28.6015 7.33056 27.8632C5.7092 27.1215 4.86256 26.2078 4.60191 25.235C4.34125 24.2623 4.61765 23.0477 5.65091 21.5946C6.67933 20.1484 8.37397 18.5938 10.6571 17.0378C15.2152 13.9314 21.9299 10.9472 29.7196 8.85991C37.5093 6.77266 44.8165 5.99975 50.3171 6.41092C53.0723 6.61688 55.3173 7.1159 56.931 7.85418C58.5524 8.59594 59.399 9.50958 59.6597 10.4824Z" fill="#F56565" stroke="black" stroke-width="2"/>
<path d="M29.0115 32.604L30.7794 26.6541L54.469 13.5021L59.1105 16.4478L43.949 26.6269L29.0115 32.604Z" fill="#F56565"/>
<path d="M60.9343 10.9023C60.7374 10.3863 60.1595 10.1276 59.6435 10.3245C59.1275 10.5214 58.8688 11.0993 59.0657 11.6153L60.9343 10.9023ZM59.0657 11.6153L61.0657 16.8565L62.9343 16.1435L60.9343 10.9023L59.0657 11.6153Z" fill="black"/>
</svg>
